<svg version="1.1" xmlns="http://www.w3.org/2000/svg" xmlns:xlink="http://www.w3.org/1999/xlink">
    <symbol id="icon1" viewBox="0 0 47.594 47.59">
        <path id="icon" class="cls-1" d="M534.668,1121.47a1.591,1.591,0,0,0-2.248,0l-13.847,13.84-19.467,8.58-3-3,8.576-19.47,13.844-13.84a1.59,1.59,0,0,0-2.248-2.25l-14.268,14.26-14.477,32.87,32.868-14.47,14.266-14.27A1.592,1.592,0,0,0,534.668,1121.47Zm-20.173,11a1.606,1.606,0,0,0,2.25,0l13.332-13.34a1.591,1.591,0,0,0-2.25-2.25L514.5,1130.22A1.593,1.593,0,0,0,514.5,1132.47Zm-3.48-3.48a1.606,1.606,0,0,0,2.25,0l13.333-13.34a1.591,1.591,0,0,0-2.25-2.25l-13.333,13.33A1.6,1.6,0,0,0,511.015,1128.99Zm-3.481-3.49a1.581,1.581,0,0,0,2.25,0l13.333-13.33a1.591,1.591,0,0,0-2.25-2.25l-13.333,13.33A1.593,1.593,0,0,0,507.534,1125.5Z" transform="translate(-487.531 -1104.88)"/>
    </symbol>

    <symbol id="icon2" viewBox="0 0 42.875 39.19">
        <path id="icon" class="cls-1" d="M811.851,1113.11l-21.437,11.56,21.437,11.56,21.436-11.56Zm0,26.85-17.452-9.41-3.985,2.15,21.437,11.55,21.436-11.55-3.985-2.15Zm0,8.02-17.452-9.41-3.985,2.15,21.437,11.56,21.436-11.56-3.985-2.15Z" transform="translate(-790.406 -1113.09)"/>
    </symbol>

    <symbol id="icon3" viewBox="0 0 43.56 43.56">
        <path id="icon" class="cls-1" d="M1132.93,1129.85a4.327,4.327,0,0,0-2.61-3.86,4.623,4.623,0,0,1-2.88-6.97,4.161,4.161,0,0,0-5.46-5.46,6.019,6.019,0,0,1-4.23.35,5.937,5.937,0,0,1-2.74-3.24,4.173,4.173,0,0,0-7.73,0,4.634,4.634,0,0,1-6.97,2.89,4.161,4.161,0,0,0-5.46,5.46,4.636,4.636,0,0,1-2.88,6.97,4.159,4.159,0,0,0,0,7.72,4.623,4.623,0,0,1,2.88,6.97,4.161,4.161,0,0,0,5.46,5.46,4.634,4.634,0,0,1,6.97,2.89,4.173,4.173,0,0,0,7.73,0,4.628,4.628,0,0,1,6.97-2.89,4.161,4.161,0,0,0,5.46-5.46,4.623,4.623,0,0,1,2.88-6.97A4.327,4.327,0,0,0,1132.93,1129.85Zm-21.79,7.99a7.985,7.985,0,1,1,7.99-7.98A7.979,7.979,0,0,1,1111.14,1137.84Z" transform="translate(-1089.38 -1108.06)"/>
    </symbol>

    <symbol id="icon4" viewBox="0 0 50.87 35.63">
        <path id="icon" class="cls-1" d="M1397,1129.25a6.787,6.787,0,0,1,5.74-3.61h26.21v-1.66a2.482,2.482,0,0,0-2.46-2.48h-10.82v-1.44a3.707,3.707,0,0,0-3.68-3.73h-6.29a3.722,3.722,0,0,0-3.69,3.73v1.44H1391.2a2.475,2.475,0,0,0-2.46,2.48v22.17Zm7.47-9.19a1.266,1.266,0,0,1,.36-0.88,1.185,1.185,0,0,1,.87-0.36h6.29a1.231,1.231,0,0,1,1.23,1.24v1.44h-8.75v-1.44Zm25.45,29.7a4.319,4.319,0,0,1-3.54,2.22h-35.3a1.417,1.417,0,0,1-1.37-2.22l9.49-19.42a4.333,4.333,0,0,1,3.54-2.22h35.3a1.417,1.417,0,0,1,1.37,2.22Z" transform="translate(-1388.75 -1116.34)"/>
    </symbol>

    <symbol id="arrowleft" viewBox="0 0 21.969 21.97">
        <path id="left" class="cls-1" d="M942.583,5770.43l4.772-4.77a0.735,0.735,0,0,1,1.04,1.04l-4.254,4.26,4.254,4.25a0.735,0.735,0,0,1-1.04,1.04l-4.772-4.77a0.731,0.731,0,0,1-.216-0.52A0.759,0.759,0,0,1,942.583,5770.43Zm3.4-10.4A10.98,10.98,0,1,1,935,5771.01,10.979,10.979,0,0,1,945.987,5760.03Zm0,20.49a9.51,9.51,0,1,0-9.512-9.51A9.526,9.526,0,0,0,945.987,5780.52Z" transform="translate(-935 -5760.03)"/>
    </symbol>

    <symbol id="arrowright" viewBox="0 0 21.969 21.97">
        <path id="right" class="cls-1" d="M979.417,5770.43l-4.772-4.77a0.735,0.735,0,0,0-1.04,1.04l4.254,4.26-4.254,4.25a0.735,0.735,0,0,0,1.04,1.04l4.772-4.77a0.731,0.731,0,0,0,.216-0.52A0.759,0.759,0,0,0,979.417,5770.43Zm-3.405-10.4A10.98,10.98,0,1,0,987,5771.01,10.978,10.978,0,0,0,976.012,5760.03Zm0,20.49a9.51,9.51,0,1,1,9.513-9.51A9.526,9.526,0,0,1,976.012,5780.52Z" transform="translate(-965.031 -5760.03)"/>
    </symbol>

    <symbol id="lupa" viewBox="0 0 25.157 24.47">
        <path id="lupa" class="cls-1" d="M985.3,2645.08a1.3,1.3,0,1,0,0,2.59,4.156,4.156,0,0,1,3.748,2.31,1.327,1.327,0,0,0,1.758.6,1.284,1.284,0,0,0,.607-1.73A6.756,6.756,0,0,0,985.3,2645.08Zm14.152,17.8-4.383-4.32a10.838,10.838,0,0,0,2.068-6.36,11.158,11.158,0,1,0-4.346,8.7l4.335,4.27a1.649,1.649,0,0,0,2.326,0A1.6,1.6,0,0,0,999.456,2662.88Zm-22.047-10.68a8.552,8.552,0,0,1,17.1,0,8.4,8.4,0,0,1-3.029,6.42A8.561,8.561,0,0,1,977.409,2652.2Z" transform="translate(-974.781 -2641.19)"/>
    </symbol>

    <symbol id="link" viewBox="0 0 25.157 24.47">
        <path id="link" class="cls-1" d="M943.5,2643.49a6.208,6.208,0,0,0-8.743,0l-4.721,4.73a7.1,7.1,0,0,1,4.908.37l2.454-2.45a2.447,2.447,0,0,1,3.46,3.46l-3.085,3.09-2.028,2.02a2.438,2.438,0,0,1-3.46,0l-2.641,2.65a6.064,6.064,0,0,0,2.079,1.36,6.237,6.237,0,0,0,6.153-.9,4.686,4.686,0,0,0,.511-0.46l3.187-3.19,1.926-1.93A6.18,6.18,0,0,0,943.5,2643.49Zm-12.561,16.03-2.352,2.36a2.447,2.447,0,0,1-3.46-3.46l5.113-5.12a2.457,2.457,0,0,1,3.46,0l2.642-2.64a5.97,5.97,0,0,0-2.079-1.37,6.206,6.206,0,0,0-6.426,1.14,3.111,3.111,0,0,0-.239.23l-5.113,5.11a6.185,6.185,0,0,0,8.744,8.75l4.618-4.67C933.5,2660.39,932.949,2660.33,930.938,2659.52Z" transform="translate(-920.688 -2641.72)"/>
    </symbol>

    <symbol id="cart" viewBox="0 0 18 24">
        <path id="icon-cart" class="cls-1" d="M1491,58h-1.5c0-1.657-2.02-3-4.5-3s-4.5,1.344-4.5,3H1479a3,3,0,0,0-3,3V76a3,3,0,0,0,3,3h12a3,3,0,0,0,2.99-3V61A3,3,0,0,0,1491,58Zm-6-1.5c1.66,0,3,.464,3,1.5h-6C1482,56.962,1483.34,56.5,1485,56.5Zm7.49,19.5a1.5,1.5,0,0,1-1.49,1.5h-12a1.5,1.5,0,0,1-1.5-1.5V74.5h14.99V76Zm0-3H1477.5V61a1.5,1.5,0,0,1,1.5-1.5h1.5V64h1.5V59.5h6V64h1.5V59.5h1.5a1.5,1.5,0,0,1,1.49,1.5V73Z" transform="translate(-1476 -55)"/>
    </symbol>

    <symbol id="search" viewBox="0 0 24 24">
        <path id="icon-search" class="cls-1" d="M1545.76,77.682l-6.19-6.095a9.807,9.807,0,0,0,2.62-6.658,10.1,10.1,0,1,0-10.1,9.934,10.183,10.183,0,0,0,6.36-2.218l6.21,6.12a0.788,0.788,0,0,0,1.1,0A0.763,0.763,0,0,0,1545.76,77.682Zm-13.67-4.348a8.406,8.406,0,1,1,8.54-8.405A8.477,8.477,0,0,1,1532.09,73.334Z" transform="translate(-1522 -55)"/>
    </symbol>

    <symbol id="bigarrowleft" viewBox="0 0 40 72.938">
        <path id="left" class="cls-1" d="M188.026,547.979L150.005,511.5l38.021-36.48,1.969,2L154.066,511.5,190,545.977Z" transform="translate(-150 -475.031)"/>
    </symbol>

    <symbol id="bigarrowright" viewBox="0 0 40 72.938">
        <path id="right" class="cls-1" d="M1731.97,547.979L1770,511.5l-38.03-36.48-1.97,2,35.93,34.476L1730,545.977Z" transform="translate(-1730 -475.031)"/>
    </symbol>
</svg>