<svg version="1.1" xmlns="http://www.w3.org/2000/svg" xmlns:xlink="http://www.w3.org/1999/xlink">
    <symbol id="icon1" viewBox="0 0 47.594 47.59">
        <defs>
            <style>
                .cls-1 {
                fill-rule: evenodd;
                filter: url(#filter);
                }
            </style>
            <filter id="filter" x="487.531" y="1104.88" width="47.594" height="47.59" filterUnits="userSpaceOnUse">
                <feFlood result="flood" flood-color="#555"/>
                <feComposite result="composite" operator="in" in2="SourceGraphic"/>
                <feBlend result="blend" in2="SourceGraphic"/>
            </filter>
        </defs>
        <path id="icon" class="cls-1" d="M534.668,1121.47a1.591,1.591,0,0,0-2.248,0l-13.847,13.84-19.467,8.58-3-3,8.576-19.47,13.844-13.84a1.59,1.59,0,0,0-2.248-2.25l-14.268,14.26-14.477,32.87,32.868-14.47,14.266-14.27A1.592,1.592,0,0,0,534.668,1121.47Zm-20.173,11a1.606,1.606,0,0,0,2.25,0l13.332-13.34a1.591,1.591,0,0,0-2.25-2.25L514.5,1130.22A1.593,1.593,0,0,0,514.5,1132.47Zm-3.48-3.48a1.606,1.606,0,0,0,2.25,0l13.333-13.34a1.591,1.591,0,0,0-2.25-2.25l-13.333,13.33A1.6,1.6,0,0,0,511.015,1128.99Zm-3.481-3.49a1.581,1.581,0,0,0,2.25,0l13.333-13.33a1.591,1.591,0,0,0-2.25-2.25l-13.333,13.33A1.593,1.593,0,0,0,507.534,1125.5Z" transform="translate(-487.531 -1104.88)"/>
    </symbol>

    <symbol id="icon2" viewBox="0 0 42.875 39.19">
        <defs>
            <style>
                .cls-1 {
                fill-rule: evenodd;
                filter: url(#filter);
                }
            </style>
            <filter id="filter" x="790.406" y="1113.09" width="42.875" height="39.19" filterUnits="userSpaceOnUse">
                <feFlood result="flood" flood-color="#555"/>
                <feComposite result="composite" operator="in" in2="SourceGraphic"/>
                <feBlend result="blend" in2="SourceGraphic"/>
            </filter>
        </defs>
        <path id="icon" class="cls-1" d="M811.851,1113.11l-21.437,11.56,21.437,11.56,21.436-11.56Zm0,26.85-17.452-9.41-3.985,2.15,21.437,11.55,21.436-11.55-3.985-2.15Zm0,8.02-17.452-9.41-3.985,2.15,21.437,11.56,21.436-11.56-3.985-2.15Z" transform="translate(-790.406 -1113.09)"/>
    </symbol>

    <symbol id="icon3" viewBox="0 0 43.56 43.56">
        <defs>
            <style>
                .cls-1 {
                fill-rule: evenodd;
                filter: url(#filter);
                }
            </style>
            <filter id="filter" x="1089.38" y="1108.06" width="43.56" height="43.56" filterUnits="userSpaceOnUse">
                <feFlood result="flood" flood-color="#555"/>
                <feComposite result="composite" operator="in" in2="SourceGraphic"/>
                <feBlend result="blend" in2="SourceGraphic"/>
            </filter>
        </defs>
        <path id="icon" class="cls-1" d="M1132.93,1129.85a4.327,4.327,0,0,0-2.61-3.86,4.623,4.623,0,0,1-2.88-6.97,4.161,4.161,0,0,0-5.46-5.46,6.019,6.019,0,0,1-4.23.35,5.937,5.937,0,0,1-2.74-3.24,4.173,4.173,0,0,0-7.73,0,4.634,4.634,0,0,1-6.97,2.89,4.161,4.161,0,0,0-5.46,5.46,4.636,4.636,0,0,1-2.88,6.97,4.159,4.159,0,0,0,0,7.72,4.623,4.623,0,0,1,2.88,6.97,4.161,4.161,0,0,0,5.46,5.46,4.634,4.634,0,0,1,6.97,2.89,4.173,4.173,0,0,0,7.73,0,4.628,4.628,0,0,1,6.97-2.89,4.161,4.161,0,0,0,5.46-5.46,4.623,4.623,0,0,1,2.88-6.97A4.327,4.327,0,0,0,1132.93,1129.85Zm-21.79,7.99a7.985,7.985,0,1,1,7.99-7.98A7.979,7.979,0,0,1,1111.14,1137.84Z" transform="translate(-1089.38 -1108.06)"/>
    </symbol>

    <symbol id="icon4" viewBox="0 0 50.87 35.63">
        <defs>
            <style>
                .cls-1 {
                fill-rule: evenodd;
                filter: url(#filter);
                }
            </style>
            <filter id="filter" x="1388.75" y="1116.34" width="50.87" height="35.63" filterUnits="userSpaceOnUse">
                <feFlood result="flood" flood-color="#555"/>
                <feComposite result="composite" operator="in" in2="SourceGraphic"/>
                <feBlend result="blend" in2="SourceGraphic"/>
            </filter>
        </defs>
        <path id="icon" class="cls-1" d="M1397,1129.25a6.787,6.787,0,0,1,5.74-3.61h26.21v-1.66a2.482,2.482,0,0,0-2.46-2.48h-10.82v-1.44a3.707,3.707,0,0,0-3.68-3.73h-6.29a3.722,3.722,0,0,0-3.69,3.73v1.44H1391.2a2.475,2.475,0,0,0-2.46,2.48v22.17Zm7.47-9.19a1.266,1.266,0,0,1,.36-0.88,1.185,1.185,0,0,1,.87-0.36h6.29a1.231,1.231,0,0,1,1.23,1.24v1.44h-8.75v-1.44Zm25.45,29.7a4.319,4.319,0,0,1-3.54,2.22h-35.3a1.417,1.417,0,0,1-1.37-2.22l9.49-19.42a4.333,4.333,0,0,1,3.54-2.22h35.3a1.417,1.417,0,0,1,1.37,2.22Z" transform="translate(-1388.75 -1116.34)"/>
    </symbol>
</svg>